<svg xmlns="http://www.w3.org/2000/svg" width="25" height="25" viewBox="0 0 25 25" fill="#fff">
  <path id="_085-shopping-cart" data-name="085-shopping-cart" d="M24.779,6.265a.977.977,0,0,0-.755-.357H6.311l-.53-3a.976.976,0,0,0-.493-.687L1.445.119A.977.977,0,0,0,.508,1.833L3.94,3.71,6.724,19.473A2.881,2.881,0,1,0,10.572,23.1h5.712a2.881,2.881,0,1,0,0-1.953H10.572a2.894,2.894,0,0,0-1.885-1.783l-.358-2.025h11.4a3.916,3.916,0,0,0,3.831-3.142.976.976,0,0,0-1.915-.382A1.958,1.958,0,0,1,19.73,15.38h-.041l.673-7.519h2.47l-.381,1.908a.977.977,0,0,0,.767,1.149.989.989,0,0,0,.192.019.977.977,0,0,0,.957-.786l.614-3.076a.977.977,0,0,0-.2-.81Zm-10.96,1.6V15.38H11.911l-.673-7.519ZM7.862,23.046a.928.928,0,1,1,.928-.928A.929.929,0,0,1,7.862,23.046Zm11.133-1.855a.928.928,0,1,1-.918,1.057.876.876,0,0,0,0-.258.928.928,0,0,1,.918-.8ZM6.656,7.861h2.62L9.95,15.38H7.984ZM17.728,15.38H15.772V7.861H18.4Zm0,0" transform="translate(0 0.001)"/>
</svg>
